{
    "asset" : {
        "generator" : "Khronos glTF Blender I/O v3.2.40",
        "version" : "2.0"
    },
    "scene" : 0,
    "scenes" : [
        {
            "name" : "Scene",
            "nodes" : [
                0,
                1,
                2,
                3
            ]
        }
    ],
    "nodes" : [
        {
            "mesh" : 0,
            "name" : "Sphere",
            "rotation" : [
                -0.003923250362277031,
                -0.9334896802902222,
                -0.0014103158609941602,
                0.35857999324798584
            ],
            "translation" : [
                0.4281120300292969,
                -0.0005267560482025146,
                -0.8422693610191345
            ]
        },
        {
            "mesh" : 1,
            "name" : "Icosphere",
            "rotation" : [
                -0.003923249896615744,
                -0.9334897398948669,
                -0.0014103155117481947,
                0.3585799038410187
            ],
            "scale" : [
                0.20194140076637268,
                0.20194141566753387,
                0.20194143056869507
            ],
            "translation" : [
                0.4478043019771576,
                2.3616943359375,
                -0.8426958918571472
            ]
        },
        {
            "mesh" : 2,
            "name" : "Cone",
            "rotation" : [
                -0.003923250362277031,
                -0.9334896802902222,
                -0.0014103158609941602,
                0.35857999324798584
            ],
            "translation" : [
                0.4281120300292969,
                -0.0005267560482025146,
                -0.8422693610191345
            ]
        },
        {
            "mesh" : 3,
            "name" : "Sphere.001",
            "rotation" : [
                -0.003923250362277031,
                -0.9334896802902222,
                -0.0014103158609941602,
                0.35857999324798584
            ],
            "translation" : [
                0.4281120300292969,
                -0.0005267560482025146,
                -0.8422693610191345
            ]
        }
    ],
    "materials" : [
        {
            "doubleSided" : true,
            "name" : "Material.001",
            "pbrMetallicRoughness" : {
                "baseColorTexture" : {
                    "index" : 0
                },
                "metallicFactor" : 0,
                "roughnessFactor" : 0.5
            }
        },
        {
            "doubleSided" : true,
            "name" : "Material",
            "pbrMetallicRoughness" : {
                "baseColorFactor" : [
                    0.10433956235647202,
                    0.4511506259441376,
                    0.8000000715255737,
                    1
                ],
                "metallicFactor" : 0,
                "roughnessFactor" : 0.5
            }
        },
        {
            "doubleSided" : true,
            "name" : "Material.002",
            "pbrMetallicRoughness" : {
                "baseColorFactor" : [
                    0.9169385433197021,
                    0.38648808002471924,
                    0,
                    1
                ],
                "metallicFactor" : 0,
                "roughnessFactor" : 0.5
            }
        },
        {
            "doubleSided" : true,
            "name" : "Material.005",
            "pbrMetallicRoughness" : {
                "baseColorTexture" : {
                    "index" : 1
                },
                "metallicFactor" : 0,
                "roughnessFactor" : 0.5
            }
        }
    ],
    "meshes" : [
        {
            "name" : "Sphere",
            "primitives" : [
                {
                    "attributes" : {
                        "POSITION" : 0,
                        "NORMAL" : 1,
                        "TEXCOORD_0" : 2
                    },
                    "indices" : 3,
                    "material" : 0
                }
            ]
        },
        {
            "name" : "Icosphere",
            "primitives" : [
                {
                    "attributes" : {
                        "POSITION" : 4,
                        "NORMAL" : 5,
                        "TEXCOORD_0" : 6
                    },
                    "indices" : 7,
                    "material" : 1
                }
            ]
        },
        {
            "name" : "Cone.001",
            "primitives" : [
                {
                    "attributes" : {
                        "POSITION" : 8,
                        "NORMAL" : 9,
                        "TEXCOORD_0" : 10
                    },
                    "indices" : 11,
                    "material" : 2
                }
            ]
        },
        {
            "name" : "Sphere.002",
            "primitives" : [
                {
                    "attributes" : {
                        "POSITION" : 12,
                        "NORMAL" : 13,
                        "TEXCOORD_0" : 14
                    },
                    "indices" : 15,
                    "material" : 3
                }
            ]
        }
    ],
    "textures" : [
        {
            "sampler" : 0,
            "source" : 0
        },
        {
            "sampler" : 0,
            "source" : 1
        }
    ],
    "images" : [
        {
            "bufferView" : 4,
            "mimeType" : "image/png",
            "name" : "Material"
        },
        {
            "bufferView" : 17,
            "mimeType" : "image/png",
            "name" : "`\u0e15\u0e32\u0e14\u0e33"
        }
    ],
    "accessors" : [
        {
            "bufferView" : 0,
            "componentType" : 5126,
            "count" : 559,
            "max" : [
                0.6373279690742493,
                2.1997902393341064,
                0.6373278498649597
            ],
            "min" : [
                -0.6373274922370911,
                1.0336247682571411,
                -0.6373273730278015
            ],
            "type" : "VEC3"
        },
        {
            "bufferView" : 1,
            "componentType" : 5126,
            "count" : 559,
            "type" : "VEC3"
        },
        {
            "bufferView" : 2,
            "componentType" : 5126,
            "count" : 559,
            "type" : "VEC2"
        },
        {
            "bufferView" : 3,
            "componentType" : 5123,
            "count" : 2880,
            "type" : "SCALAR"
        },
        {
            "bufferView" : 5,
            "componentType" : 5126,
            "count" : 63,
            "max" : [
                0.9756699204444885,
                0.7732775211334229,
                0.9021584987640381
            ],
            "min" : [
                -0.8443306684494019,
                -1.0367438793182373,
                -1.0916738510131836
            ],
            "type" : "VEC3"
        },
        {
            "bufferView" : 6,
            "componentType" : 5126,
            "count" : 63,
            "type" : "VEC3"
        },
        {
            "bufferView" : 7,
            "componentType" : 5126,
            "count" : 63,
            "type" : "VEC2"
        },
        {
            "bufferView" : 8,
            "componentType" : 5123,
            "count" : 240,
            "type" : "SCALAR"
        },
        {
            "bufferView" : 9,
            "componentType" : 5126,
            "count" : 128,
            "max" : [
                0.6171583533287048,
                1.6486132144927979,
                -0.2041284590959549
            ],
            "min" : [
                0.21320566534996033,
                1.4445823431015015,
                -0.6079855561256409
            ],
            "type" : "VEC3"
        },
        {
            "bufferView" : 10,
            "componentType" : 5126,
            "count" : 128,
            "type" : "VEC3"
        },
        {
            "bufferView" : 11,
            "componentType" : 5126,
            "count" : 128,
            "type" : "VEC2"
        },
        {
            "bufferView" : 12,
            "componentType" : 5123,
            "count" : 186,
            "type" : "SCALAR"
        },
        {
            "bufferView" : 13,
            "componentType" : 5126,
            "count" : 3968,
            "max" : [
                0.6507238149642944,
                1.9260855913162231,
                -0.047134555876255035
            ],
            "min" : [
                0.05888871103525162,
                1.6562966108322144,
                -0.6390812993049622
            ],
            "type" : "VEC3"
        },
        {
            "bufferView" : 14,
            "componentType" : 5126,
            "count" : 3968,
            "type" : "VEC3"
        },
        {
            "bufferView" : 15,
            "componentType" : 5126,
            "count" : 3968,
            "type" : "VEC2"
        },
        {
            "bufferView" : 16,
            "componentType" : 5123,
            "count" : 5760,
            "type" : "SCALAR"
        }
    ],
    "bufferViews" : [
        {
            "buffer" : 0,
            "byteLength" : 6708,
            "byteOffset" : 0
        },
        {
            "buffer" : 0,
            "byteLength" : 6708,
            "byteOffset" : 6708
        },
        {
            "buffer" : 0,
            "byteLength" : 4472,
            "byteOffset" : 13416
        },
        {
            "buffer" : 0,
            "byteLength" : 5760,
            "byteOffset" : 17888
        },
        {
            "buffer" : 0,
            "byteLength" : 20567,
            "byteOffset" : 23648
        },
        {
            "buffer" : 0,
            "byteLength" : 756,
            "byteOffset" : 44216
        },
        {
            "buffer" : 0,
            "byteLength" : 756,
            "byteOffset" : 44972
        },
        {
            "buffer" : 0,
            "byteLength" : 504,
            "byteOffset" : 45728
        },
        {
            "buffer" : 0,
            "byteLength" : 480,
            "byteOffset" : 46232
        },
        {
            "buffer" : 0,
            "byteLength" : 1536,
            "byteOffset" : 46712
        },
        {
            "buffer" : 0,
            "byteLength" : 1536,
            "byteOffset" : 48248
        },
        {
            "buffer" : 0,
            "byteLength" : 1024,
            "byteOffset" : 49784
        },
        {
            "buffer" : 0,
            "byteLength" : 372,
            "byteOffset" : 50808
        },
        {
            "buffer" : 0,
            "byteLength" : 47616,
            "byteOffset" : 51180
        },
        {
            "buffer" : 0,
            "byteLength" : 47616,
            "byteOffset" : 98796
        },
        {
            "buffer" : 0,
            "byteLength" : 31744,
            "byteOffset" : 146412
        },
        {
            "buffer" : 0,
            "byteLength" : 11520,
            "byteOffset" : 178156
        },
        {
            "buffer" : 0,
            "byteLength" : 20565,
            "byteOffset" : 189676
        }
    ],
    "samplers" : [
        {
            "magFilter" : 9729,
            "minFilter" : 9987
        }
    ],
    "buffers" : [
        {
            "byteLength" : 210244,
            "uri" : "data:application/octet-stream;base64,"
        }
    ]
}
